# Blender 4.3.2
# www.blender.org
mtllib Barca.mtl
o Cube.006
v -0.078119 0.006804 0.313188
v -0.127595 0.028692 -0.148304
v -0.079934 0.081167 0.356043
v -0.137546 0.104855 -0.181860
v -0.114746 0.002346 0.236408
v -0.145008 0.005344 0.159937
v -0.157115 0.009371 0.083129
v -0.158828 0.014943 0.006186
v -0.149805 0.021600 -0.070927
v -0.122715 0.080084 0.266819
v -0.157875 0.079155 0.177436
v -0.171983 0.083814 0.087927
v -0.173976 0.090233 -0.001742
v -0.163456 0.097696 -0.091623
v -0.068112 0.007054 0.312983
v -0.038683 0.030918 -0.150121
v -0.068272 0.081459 0.355805
v -0.033934 0.107450 -0.183978
v -0.034474 0.004357 0.234767
v -0.007549 0.008787 0.157127
v 0.001195 0.013336 0.079893
v -0.000518 0.018908 0.002950
v -0.013004 0.025027 -0.073724
v -0.029170 0.082426 0.264906
v 0.002312 0.083167 0.174162
v 0.012502 0.088435 0.084156
v 0.010508 0.094854 -0.005513
v -0.004035 0.101689 -0.094882
v -0.073116 0.006929 0.313085
v -0.083668 0.031242 -0.173326
v -0.074105 0.081380 0.355928
v -0.086011 0.106911 -0.195270
v -0.074125 -0.017046 0.234352
v -0.075694 -0.017489 0.157045
v -0.077365 -0.013648 0.079997
v -0.079082 -0.007893 0.003065
v -0.080826 -0.000996 -0.073798
v -0.077109 0.008074 0.305459
v -0.125961 0.029271 -0.140729
v -0.078605 0.081696 0.345614
v -0.135372 0.104586 -0.171944
v -0.112701 0.003122 0.230861
v -0.142330 0.006701 0.155820
v -0.154010 0.010690 0.081839
v -0.155669 0.016091 0.007501
v -0.146943 0.022556 -0.067161
v -0.119762 0.080325 0.258799
v -0.154153 0.079466 0.171704
v -0.167617 0.084050 0.086059
v -0.169538 0.090241 0.000030
v -0.159421 0.097465 -0.086410
v -0.069500 0.008264 0.305304
v -0.040033 0.031423 -0.142485
v -0.070050 0.081910 0.345440
v -0.035685 0.107082 -0.173982
v -0.036781 0.005023 0.229309
v -0.010457 0.010004 0.153125
v -0.002023 0.014497 0.078732
v -0.003674 0.019898 0.004394
v -0.015754 0.025842 -0.069842
v -0.032457 0.082511 0.257014
v -0.001651 0.083286 0.168587
v 0.008057 0.088450 0.082468
v 0.006151 0.094641 -0.003562
v -0.007836 0.101262 -0.089509
v -0.073303 0.008299 0.305612
v -0.083528 0.031873 -0.165732
v -0.074344 0.081882 0.344839
v -0.085774 0.106495 -0.184175
v -0.081341 0.020638 -0.072487
v -0.079597 0.013743 0.004375
v -0.077880 0.007990 0.081308
v -0.076209 0.004153 0.158356
v -0.074640 0.004605 0.235664
v -0.082999 0.030425 -0.141619
v -0.073303 0.008299 0.305612
v -0.015754 0.025842 -0.069842
v -0.003674 0.019898 0.004394
v -0.002023 0.014497 0.078732
v -0.010457 0.010004 0.153125
v -0.036781 0.005023 0.229309
v -0.040033 0.031423 -0.142485
v -0.069500 0.008264 0.305304
v -0.146943 0.022556 -0.067161
v -0.155669 0.016091 0.007501
v -0.077109 0.008074 0.305459
v -0.125961 0.029271 -0.140729
v -0.112701 0.003122 0.230861
v -0.142330 0.006701 0.155820
v -0.154010 0.010690 0.081839
vn -0.2259 -0.9454 -0.2349
vn 0.0330 -0.4983 0.8664
vn -0.9260 -0.2457 -0.2867
vn -0.3663 -0.8956 0.2524
vn -0.3557 -0.9328 0.0581
vn -0.2948 -0.9553 -0.0225
vn -0.2781 -0.9584 -0.0644
vn -0.2944 -0.9507 -0.0976
vn -0.8677 -0.2599 0.4237
vn -0.9049 -0.2363 0.3540
vn -0.9689 -0.2026 0.1421
vn -0.9805 -0.1964 0.0077
vn -0.9691 -0.2091 -0.1311
vn -0.3358 -0.3473 -0.8756
vn 0.2631 -0.9332 -0.2449
vn 0.0274 -0.4984 0.8665
vn 0.9246 -0.1993 -0.3246
vn 0.4206 -0.8759 0.2363
vn 0.4040 -0.9138 0.0426
vn 0.3410 -0.9394 -0.0354
vn 0.3228 -0.9434 -0.0766
vn 0.3373 -0.9349 -0.1105
vn 0.8962 -0.2157 0.3877
vn 0.9293 -0.1904 0.3165
vn 0.9828 -0.1537 0.1022
vn 0.9886 -0.1471 -0.0326
vn 0.9721 -0.1605 -0.1708
vn 0.3167 -0.3309 -0.8889
vn -0.0918 0.4714 -0.8771
vn 0.9308 0.2309 0.2835
vn 0.8728 0.2411 -0.4244
vn 0.9089 0.2183 -0.3552
vn 0.9716 0.1887 -0.1429
vn 0.9831 0.1829 -0.0087
vn 0.9721 0.1952 0.1303
vn 0.3419 0.3193 0.8838
vn 0.0322 0.4745 -0.8797
vn -0.9288 0.1843 0.3215
vn -0.9003 0.1967 -0.3882
vn -0.9325 0.1721 -0.3176
vn -0.9848 0.1397 -0.1029
vn -0.9905 0.1335 0.0316
vn -0.9745 0.1464 0.1701
vn -0.3211 0.3027 0.8974
vn -0.0355 0.9983 0.0461
vn -0.0691 0.9957 0.0612
vn -0.0783 0.9967 0.0234
vn -0.0570 0.9983 0.0124
vn -0.0156 0.9984 0.0551
vn -0.0267 0.9970 0.0722
vn -0.0385 0.9962 0.0785
vn -0.0300 0.9989 0.0361
vn -0.0127 0.9989 0.0456
vn 0.0216 0.9980 0.0594
vn 0.0292 0.9993 0.0212
vn 0.0075 0.9999 0.0111
vn -0.0321 0.9979 0.0555
vn -0.0203 0.9972 0.0720
vn -0.0083 0.9969 0.0779
vn -0.0186 0.9992 0.0358
vn 0.0137 0.9931 0.1167
vn -0.0347 0.9981 -0.0508
vn 0.0089 0.9998 0.0187
vn 0.0361 0.9982 0.0485
vn 0.0348 0.9967 0.0727
vn 0.0353 0.9954 0.0894
vn -0.0586 0.9913 0.1182
vn -0.0174 0.9985 -0.0512
vn -0.0581 0.9981 0.0201
vn -0.0840 0.9952 0.0510
vn -0.0816 0.9938 0.0751
vn -0.0814 0.9924 0.0918
vt 0.293674 0.182356
vt 0.293674 0.087459
vt 0.204974 0.120679
vt 0.204974 0.182356
vt 0.953620 0.316924
vt 0.953620 0.438678
vt 0.941970 0.438678
vt 0.943623 0.316924
vt -0.092811 0.334035
vt -0.166038 0.545104
vt -0.424098 0.545104
vt -0.314257 0.334035
vt 0.737173 0.182356
vt 0.737173 0.175414
vt 0.648473 0.126672
vt 0.648473 0.182356
vt 0.559774 0.087002
vt 0.559774 0.182356
vt 0.471074 0.072539
vt 0.471074 0.182356
vt 0.382374 0.072539
vt 0.382374 0.182356
vt 1.014421 0.334035
vt 1.124261 0.545104
vt 0.866201 0.545104
vt 0.792975 0.334035
vt 0.608141 0.545104
vt 0.571528 0.334035
vt 0.350082 0.545104
vt 0.350082 0.334035
vt 0.092022 0.545104
vt 0.128636 0.334035
vt 1.074048 0.343621
vt 1.109922 0.641039
vt 0.857075 0.641039
vt 0.857075 0.343621
vt 0.293674 0.796789
vt 0.204974 0.796789
vt 0.204974 0.735112
vt 0.293674 0.701892
vt 0.963618 0.316924
vt 0.965271 0.438678
vt 0.001974 0.414336
vt -0.215379 0.414336
vt -0.323190 0.621503
vt -0.069900 0.621503
vt 0.737173 0.796789
vt 0.648473 0.796789
vt 0.648473 0.741105
vt 0.737173 0.789847
vt 0.559774 0.796789
vt 0.559774 0.701435
vt 0.471074 0.796789
vt 0.471074 0.686972
vt 0.382374 0.796789
vt 0.382374 0.686972
vt 1.088739 0.414336
vt 0.871386 0.414336
vt 0.943259 0.621503
vt 1.196548 0.621503
vt 0.654033 0.414336
vt 0.689969 0.621503
vt 0.436680 0.414336
vt 0.436680 0.621503
vt 0.219327 0.414336
vt 0.183390 0.621503
vt 0.640102 0.343621
vt 0.604228 0.641039
vt 0.857075 0.441597
vt 0.857075 0.543063
vt 0.943336 0.543063
vt 0.931097 0.441597
vt 0.006652 0.881113
vt -0.246638 0.881113
vt -0.138828 0.673945
vt 0.078525 0.673945
vt 1.273100 0.881113
vt 1.019810 0.881113
vt 0.947938 0.673945
vt 1.165291 0.673945
vt 0.766521 0.881113
vt 0.730585 0.673945
vt 0.513231 0.881113
vt 0.513231 0.673945
vt 0.259941 0.881113
vt 0.295878 0.673945
vt 0.770814 0.543063
vt 0.783053 0.441597
vt 1.052279 0.129218
vt 1.051290 0.150725
vt 1.017275 0.149037
vt 1.020123 0.133367
vt -0.579737 -0.118749
vt -0.302898 -0.207054
vt -0.287685 -0.192053
vt -0.550394 -0.110272
vt 0.781514 -0.033961
vt 0.756694 -0.023689
vt 0.512567 -0.167440
vt 0.494801 -0.154319
vt 0.243112 -0.225368
vt 0.236928 -0.209669
vt -0.028673 -0.239076
vt -0.023888 -0.222850
vt -0.589258 0.070249
vt -0.556105 0.071836
vt 1.050131 0.172249
vt 1.018548 0.164931
vt -0.331937 0.374680
vt -0.598608 0.259282
vt -0.568560 0.253635
vt -0.315303 0.361214
vt 0.764386 0.309151
vt 0.740712 0.296494
vt 0.483411 0.416659
vt 0.467040 0.401811
vt 0.209528 0.447427
vt 0.204941 0.431136
vt -0.062268 0.433925
vt -0.055888 0.418202
vt 1.618690 0.458003
vt 1.618602 0.970222
vt 1.237842 1.240017
vt 1.257380 0.458003
vt -0.344480 0.458003
vt -0.315739 0.910567
vt -0.704635 0.503358
vt -0.705790 0.458003
vt 0.055985 0.458003
vt 0.077427 1.244103
vt 0.456450 0.458003
vt 0.463189 1.363997
vt 0.856914 0.458003
vt 0.850103 1.364044
vt 1.237842 -0.324011
vt 1.618602 -0.054215
vt -0.704635 0.412648
vt -0.315739 0.005440
vt 0.077427 -0.328095
vt 0.463189 -0.447990
vt 0.850103 -0.448037
s 0
usemtl Material.025
f 37/1/1 9/2/1 2/3/1 30/4/1
f 29/5/2 31/6/2 3/7/2 1/8/2
f 9/9/3 14/10/3 4/11/3 2/12/3
f 29/13/4 1/14/4 5/15/4 33/16/4
f 33/16/5 5/15/5 6/17/5 34/18/5
f 34/18/6 6/17/6 7/19/6 35/20/6
f 35/20/7 7/19/7 8/21/7 36/22/7
f 36/22/8 8/21/8 9/2/8 37/1/8
f 1/23/9 3/24/9 10/25/9 5/26/9
f 5/26/10 10/25/10 11/27/10 6/28/10
f 6/28/11 11/27/11 12/29/11 7/30/11
f 7/30/12 12/29/12 13/31/12 8/32/12
f 8/32/13 13/31/13 14/10/13 9/9/13
f 2/33/14 4/34/14 32/35/14 30/36/14
f 37/37/15 30/38/15 16/39/15 23/40/15
f 29/5/16 15/41/16 17/42/16 31/6/16
f 23/43/17 16/44/17 18/45/17 28/46/17
f 29/47/18 33/48/18 19/49/18 15/50/18
f 33/48/19 34/51/19 20/52/19 19/49/19
f 34/51/20 35/53/20 21/54/20 20/52/20
f 35/53/21 36/55/21 22/56/21 21/54/21
f 36/55/22 37/37/22 23/40/22 22/56/22
f 15/57/23 19/58/23 24/59/23 17/60/23
f 19/58/24 20/61/24 25/62/24 24/59/24
f 20/61/25 21/63/25 26/64/25 25/62/25
f 21/63/26 22/65/26 27/66/26 26/64/26
f 22/65/27 23/43/27 28/46/27 27/66/27
f 16/67/28 30/36/28 32/35/28 18/68/28
f 38/8/29 40/7/29 68/6/29 66/5/29
f 39/12/30 41/11/30 51/10/30 46/9/30
f 42/26/31 47/25/31 40/24/31 38/23/31
f 43/28/32 48/27/32 47/25/32 42/26/32
f 44/30/33 49/29/33 48/27/33 43/28/33
f 45/32/34 50/31/34 49/29/34 44/30/34
f 46/9/35 51/10/35 50/31/35 45/32/35
f 67/69/36 69/70/36 41/71/36 39/72/36
f 68/6/37 54/42/37 52/41/37 66/5/37
f 65/73/38 55/74/38 53/75/38 60/76/38
f 54/77/39 61/78/39 56/79/39 52/80/39
f 61/78/40 62/81/40 57/82/40 56/79/40
f 62/81/41 63/83/41 58/84/41 57/82/41
f 63/83/42 64/85/42 59/86/42 58/84/42
f 64/85/43 65/73/43 60/76/43 59/86/43
f 55/87/44 69/70/44 67/69/44 53/88/44
f 3/89/45 31/90/45 68/91/45 40/92/45
f 4/93/46 14/94/46 51/95/46 41/96/46
f 10/97/47 3/89/47 40/92/47 47/98/47
f 11/99/48 10/97/48 47/98/48 48/100/48
f 12/101/49 11/99/49 48/100/49 49/102/49
f 13/103/50 12/101/50 49/102/50 50/104/50
f 14/94/51 13/103/51 50/104/51 51/95/51
f 32/105/52 4/93/52 41/96/52 69/106/52
f 31/90/53 17/107/53 54/108/53 68/91/53
f 28/109/54 18/110/54 55/111/54 65/112/54
f 17/107/55 24/113/55 61/114/55 54/108/55
f 24/113/56 25/115/56 62/116/56 61/114/56
f 25/115/57 26/117/57 63/118/57 62/116/57
f 26/117/58 27/119/58 64/120/58 63/118/58
f 27/119/59 28/109/59 65/112/59 64/120/59
f 18/110/60 32/105/60 69/106/60 55/111/60
f 75/121/61 87/122/61 84/123/61 70/124/61
f 74/125/62 88/126/62 86/127/62 76/128/62
f 73/129/63 89/130/63 88/126/63 74/125/63
f 72/131/64 90/132/64 89/130/64 73/129/64
f 71/133/65 85/134/65 90/132/65 72/131/65
f 70/124/66 84/123/66 85/134/66 71/133/66
f 77/135/67 82/136/67 75/121/67 70/124/67
f 83/137/68 81/138/68 74/125/68 76/128/68
f 81/138/69 80/139/69 73/129/69 74/125/69
f 80/139/70 79/140/70 72/131/70 73/129/70
f 79/140/71 78/141/71 71/133/71 72/131/71
f 78/141/72 77/135/72 70/124/72 71/133/72
o Cube.007
v 0.006205 0.072137 0.119334
v 0.000649 0.069953 0.153202
v -0.154523 0.066065 0.156386
v -0.161426 0.067939 0.122748
v 0.006107 0.076233 0.119582
v 0.000551 0.074049 0.153450
v -0.154621 0.070162 0.156634
v -0.161524 0.072036 0.122997
v -0.164363 0.077381 -0.034714
v -0.160628 0.079566 -0.069309
v -0.005446 0.083454 -0.072501
v -0.000520 0.081484 -0.038042
v -0.164462 0.081534 -0.034462
v -0.160727 0.083719 -0.069057
v -0.005544 0.087607 -0.072250
v -0.000619 0.085637 -0.037791
vn 0.9866 0.0136 0.1627
vn 0.0220 -0.0599 0.9980
vn -0.9794 -0.0354 0.1990
vn -0.0218 0.0599 -0.9980
vn 0.0238 -0.9979 -0.0605
vn -0.0238 0.9979 0.0605
vn -0.9940 -0.0171 -0.1084
vn -0.0220 0.0599 -0.9980
vn 0.9897 0.0320 -0.1396
vn 0.0218 -0.0600 0.9980
vt 0.198211 0.344724
vt 0.745502 0.344724
vt 0.745502 0.278696
vt 0.198211 0.278696
vt 0.142926 0.679677
vt 0.853459 0.679677
vt 0.853459 0.661807
vt 0.142926 0.661807
vt 0.216936 0.796840
vt 0.216936 0.884696
vt 0.688018 0.884696
vt 0.688018 0.796840
vt 0.831606 0.398608
vt 0.831606 0.517215
vt 0.164779 0.517215
vt 0.164779 0.398608
s 0
usemtl Material.026
f 95/142/73 96/143/73 92/144/73 91/145/73
f 96/146/74 97/147/74 93/148/74 92/149/74
f 97/143/75 98/142/75 94/145/75 93/144/75
f 98/147/76 95/146/76 91/149/76 94/148/76
f 91/150/77 92/151/77 93/152/77 94/153/77
f 98/154/78 97/155/78 96/156/78 95/157/78
f 103/142/79 104/143/79 100/144/79 99/145/79
f 104/146/80 105/147/80 101/148/80 100/149/80
f 105/143/81 106/142/81 102/145/81 101/144/81
f 106/147/82 103/146/82 99/149/82 102/148/82
f 99/150/77 100/151/77 101/152/77 102/153/77
f 106/154/78 105/155/78 104/156/78 103/157/78
